<svg id="Layer_1" data-name="Layer 1" xmlns="http://www.w3.org/2000/svg" xmlns:xlink="http://www.w3.org/1999/xlink" viewBox="0 0 1260 1260"><defs><style>.cls-1{fill:#ffd166;}.cls-2{fill:#ef476f;}.cls-3{fill:#06d6a0;}.cls-12,.cls-13,.cls-4{fill:#fff;}.cls-5{fill:#e5b65a;}.cls-6{fill:#8dd3bf;}.cls-7{fill:#dd4e7e;}.cls-8{fill:#ed0044;}.cls-9{fill:url(#radial-gradient);}.cls-10{fill:url(#radial-gradient-2);}.cls-11{fill:url(#radial-gradient-3);}</style><radialGradient id="radial-gradient" cx="1182.32" cy="1264.08" r="1018.33" gradientUnits="userSpaceOnUse"><stop offset="0" stop-color="#faffff"/><stop offset="1" stop-color="#faffff" stop-opacity="0"/></radialGradient><radialGradient id="radial-gradient-2" cx="1195.66" cy="843.63" r="319.43" xlink:href="#radial-gradient"/><radialGradient id="radial-gradient-3" cx="1041.1" cy="959.61" r="414.84" xlink:href="#radial-gradient"/></defs><rect width="1260" height="1260"/><g id="Logo"><path class="cls-1" d="M350.28,887c-73.83,0-104-52.32-67.13-116.26l74.2-128.5c11-19.07,24.12-41.78,38.06-65.93,4.16,3.17,7.78,6,11,8.74v0c11.7,9.26,20.08,17.88,23.09,26.51a26.15,26.15,0,0,1,1.15,4.7c2.87,18.62-14.29,25-24.86,27.89-.62.17-1.26.36-1.82.5l-.07,0h0c-1,.25-1.89.45-2.69.64a.13.13,0,0,0-.08,0l-.45.09c-1.58.35-3.18.74-4.76,1.17a93.17,93.17,0,0,0-11,3.32h0l-.19.08-.54.21c-13,5-20.16,18.52-9.78,32.33,7.82,10.41,24.62,21.69,47.11,36h0c23.55,14.78,51.17,35.82,62.27,60.95C504.37,825.94,473.16,887,376.57,887ZM440,513h0q6.47,3.33,13.39,7h0l0,0c4.9,2.55,10,5.2,15.26,7.94h0l2.31,1.21c18.65,9.5,49.14,24.43,76.57,35.1,7.8,2.94,15.69,5.73,23.56,8.24l.14,0c22.95,7.29,45.67,12.26,65.11,12.37,32.25-.23,61.93-12,76.56-45.45,12.21-33.25-4.16-76.42-51.68-99.41v0c-12-6.3-24.79-11.12-35.52-15-61.38-24.51-45.37-52.71-39.78-59.55a32.1,32.1,0,0,1,12.91-8.71c12.35-4.54,29.59,1.07,52.51,7.36,2.35.64,4.61,1.2,6.81,1.71,17.55,3.93,34.93,2.58,47.07-5.7,13.69-9.34,19.39-28.66,12.64-46.74-.22-.55-.45-1.1-.69-1.64-.15-.34-.29-.69-.45-1-.37-.82-.75-1.62-1.15-2.4s-.92-1.81-1.46-2.7L700,281.2c-36.92-63.94-97.32-63.94-134.24,0L491.59,409.71,433.76,509.86C435.82,510.9,437.85,511.92,440,513Z"/><path class="cls-2" d="M281.24,435.78a29.66,29.66,0,1,1-29.65,29.67A29.66,29.66,0,0,1,281.24,435.78Z"/><path class="cls-2" d="M584.65,887H376.57c96.59,0,127.8-61,107.23-107.57-11.1-25.13-38.72-46.17-62.27-60.95h0c-22.49-14.27-39.29-25.55-47.11-36-10.38-13.81-3.19-27.38,9.78-32.33l.54-.21.19-.08h0a93.17,93.17,0,0,1,11-3.32c1.58-.43,3.18-.82,4.76-1.17l.45-.09a.13.13,0,0,1,.08,0c.8-.19,1.69-.39,2.69-.64h0l.07,0c.56-.14,1.2-.33,1.82-.5,10.57-2.84,27.73-9.27,24.86-27.89a26.15,26.15,0,0,0-1.15-4.7c-3-8.63-11.39-17.25-23.09-26.51v0c-3.26-2.7-6.89-5.58-11-8.75-7.9-6-17.54-13-29.24-21.34-9.86-7.34-18.39-15.28-23.23-23.5a34.6,34.6,0,0,1-5-15.66h0v-.19c0-.12,0-.25,0-.38-.85-13.48,10.69-28.38,33.36-27.27,19.6,1,41,10.81,68.74,25.08h0q6.47,3.33,13.39,7h0l0,0c4.9,2.55,10,5.2,15.26,7.94h0l2.31,1.21c18.65,9.5,49.14,24.43,76.57,35.1,7.8,2.94,15.69,5.73,23.56,8.24l.14,0c22.95,7.29,45.67,12.26,65.11,12.37,32.25-.23,61.93-12,76.56-45.45,12.21-33.25-4.16-76.42-51.68-99.41v0c-12-6.3-24.79-11.12-35.52-15-61.38-24.51-45.37-52.71-39.78-59.55a32.1,32.1,0,0,1,12.91-8.71c12.35-4.54,29.59,1.07,52.51,7.36,2.35.64,4.61,1.2,6.81,1.71,17.55,3.93,34.93,2.58,47.07-5.7,13.69-9.34,19.39-28.66,12.64-46.74-.22-.55-.45-1.1-.69-1.64-.15-.34-.29-.69-.45-1-.37-.82-.75-1.62-1.15-2.4s-.92-1.81-1.46-2.7l60.09,104.09L876.12,586.25c20,34.6,3.7,74.61-40.43,72.72-12.13-.52-26.2-5.3-42.4-12.89-9.4-4.41-16.48-7.61-22.5-8.39-34.32-4.46-22.21,42.19-57.65,37.28-8-1.11-18.59-6-32.61-13.32-23.23-12.21-44.39-17-61.09-16.59-36.81.93-51.28,35.63-18.12,68.25,7.92,7.8,18.66,16,31.58,24.42,13.85,9,25.21,19.51,32.5,30.54C699.07,819.22,664.45,887,584.65,887Z"/><path class="cls-1" d="M915.52,887H847.88c-59.81,0-102.66-50.06-88.66-94.2,8.64-27.24,40.28-47.4,80.16-33.27,24.18,8.57,41.8,17.67,60.23,19.88,44.8,5.41,69.46-32.17,49-67.53h0l34,58.87C1019.55,834.67,989.35,887,915.52,887Z"/><path class="cls-3" d="M847.88,887H584.65c79.8,0,114.42-67.74,80.75-118.69-7.29-11-18.65-21.5-32.5-30.54-12.92-8.45-23.66-16.62-31.58-24.42-33.16-32.62-18.69-67.32,18.12-68.25,16.7-.43,37.86,4.38,61.09,16.59,14,7.37,24.59,12.21,32.61,13.32,35.44,4.91,23.33-41.74,57.65-37.28,6,.78,13.1,4,22.5,8.39,16.2,7.59,30.27,12.37,42.4,12.89,44.14,1.89,60.39-38.13,40.42-72.74l32.32,56,40.21,69.62c20.43,35.36-4.23,72.94-49,67.53-18.43-2.21-36.05-11.31-60.23-19.88-39.88-14.13-71.52,6-80.16,33.27C745.22,836.9,788.07,887,847.88,887Z"/><path class="cls-1" d="M769.1,887c-20.49-18.58-30.28-44.92-22.5-69.45a52.74,52.74,0,0,1,11.24-19.42c-9.12,42.74,32.63,88.87,90,88.87Z"/><path class="cls-4" d="M568.69,739.57c-32-31.52-19.61-65,14.48-68-2,12.21,3.32,27.2,18.15,41.78,7.92,7.8,18.66,16,31.58,24.42,13.85,9,25.21,19.51,32.5,30.54,26,39.27,11.3,88.5-33.32,109,17.19-23.87,18.58-55.68.7-82.76-7.29-11-18.66-21.49-32.5-30.54C587.36,755.54,576.62,747.37,568.69,739.57Z"/><path class="cls-5" d="M847.88,887h-51c-32.29-17.48-50.42-51.3-40.61-82.23.23-.71.53-1.4.79-2.1C751.68,844,792.5,887,847.88,887Z"/><path class="cls-5" d="M378,606.45l17.41-30.16c4.16,3.17,7.78,6,11,8.74v0c11.7,9.26,20.08,17.88,23.09,26.51a26.15,26.15,0,0,1,1.15,4.7c2.87,18.62-14.29,25-24.86,27.89-.62.17-1.26.36-1.82.5l-.07,0c-.79.2-1.5.36-2.17.51a23.4,23.4,0,0,0,0-7.85,25.33,25.33,0,0,0-1.15-4.7C397.66,624.07,389.45,615.57,378,606.45ZM483.8,779.39c-11.1-25.13-38.72-46.17-62.27-60.95h0c-22.49-14.27-39.29-25.55-47.11-36-4-5.36-5.39-10.68-4.81-15.48-.85.21-1.71.39-2.55.63a91.14,91.14,0,0,0-11,3.31h0l-.18.08-.54.21c-13,4.95-20.17,18.52-9.79,32.33,7.83,10.41,24.63,21.69,47.11,36h0c23.55,14.78,51.17,35.82,62.28,61,10.66,24.12,7.37,52.12-11.68,73.51C486.68,853.54,498.54,812.75,483.8,779.39Z"/><path class="cls-4" d="M712.9,539.44a74.76,74.76,0,0,1-16,23.64c6.39-31.65-11-69.27-54.28-90.18v0c-12-6.29-24.79-11.12-35.52-15-61.38-24.51-45.37-52.71-39.78-59.55a32.17,32.17,0,0,1,12.91-8.71c.22-.08.45-.13.67-.21,3.3,10.81,14.82,23.65,44.77,35.61,10.73,3.91,23.5,8.73,35.52,15v0C708.74,463,725.11,506.19,712.9,539.44Z"/><path class="cls-6" d="M712.9,539.44c-6.28,14.38-15.36,24.73-26.2,31.9a75.2,75.2,0,0,0,14.82-22.42c12.21-33.24-4.16-76.42-51.68-99.41v0c-12-6.3-24.79-11.12-35.52-15C552.93,410,568.94,381.8,574.52,375a31.8,31.8,0,0,1,9.84-7.35c-6.16,9.35-15,34.93,41.33,57.42,10.73,3.91,23.5,8.73,35.52,15v0C708.74,463,725.11,506.19,712.9,539.44Z"/><path class="cls-7" d="M429.53,611.52a26.15,26.15,0,0,1,1.15,4.7c2,12.89-5.61,19.93-14,24,2.36-3.76,3.53-8.49,2.61-14.5a25,25,0,0,0-1.16-4.7c-3-8.64-11.39-17.26-23.09-26.52v0c-2.12-1.76-4.46-3.63-6.94-5.57q3.6-6.26,7.3-12.65c4.16,3.17,7.78,6,11,8.74v0C418.14,594.27,426.52,602.89,429.53,611.52Zm28.05,254.21c31.56-21.94,39.18-57,26.22-86.34-11.1-25.13-38.72-46.17-62.27-60.95h0c-22.49-14.27-39.29-25.55-47.11-36-6.14-8.17-6.1-16.23-2.39-22.5-12.45,5.19-19.16,18.45-9,32,7.82,10.4,24.62,21.68,47.11,35.95h0c23.54,14.79,51.16,35.82,62.27,61C483.65,814.28,479.4,844,457.58,865.73Z"/><path class="cls-6" d="M653.86,776.91c-7.29-11-18.65-21.49-32.5-30.54-12.91-8.44-23.66-16.61-31.58-24.41-26.86-26.43-22.46-54.21-.25-64.3-11.08,13.19-9.39,34.82,11.79,55.65,7.92,7.8,18.66,16,31.58,24.42,13.85,9,25.21,19.51,32.5,30.54,23.87,36.13,13.38,80.68-23.18,103.55C669.21,847.51,675,808.91,653.86,776.91Z"/><path class="cls-7" d="M760.91,609.28A21.41,21.41,0,1,1,723.21,591a21.36,21.36,0,0,0,37.7,18.29Z"/><path class="cls-8" d="M765.4,596.29a21.47,21.47,0,1,1-21.47-21.45A21.46,21.46,0,0,1,765.4,596.29Z"/><path class="cls-9" d="M337.88,515.21c-.85-13.48,10.69-28.38,33.36-27.27,19.6,1,41,10.81,68.74,25.08h0q6.47,3.33,13.39,7h0l0,0c4.9,2.55,10,5.2,15.26,7.94h0l2.31,1.21c18.65,9.5,49.14,24.43,76.57,35.1,7.8,2.94,15.69,5.73,23.56,8.24l.14,0c22.95,7.29,45.67,12.26,65.11,12.37,32.25-.23,61.93-12,76.56-45.45,12.21-33.25-4.16-76.42-51.68-99.41v0c-12-6.3-24.79-11.12-35.52-15-61.38-24.51-45.37-52.71-39.78-59.55a32.1,32.1,0,0,1,12.91-8.71c12.35-4.54,29.59,1.07,52.51,7.36,2.35.64,4.61,1.2,6.81,1.71,17.55,3.93,34.93,2.58,47.07-5.7,13.69-9.34,19.39-28.66,12.64-46.74-.22-.55-.45-1.1-.69-1.64-.15-.34-.29-.69-.45-1-.37-.82-.75-1.62-1.15-2.4s-.92-1.81-1.46-2.7l18.83,32.62a76.26,76.26,0,0,1-5.68,13c-.5.9-.94,1.81-1.39,2.71a45.91,45.91,0,0,1-14.21,15.61c-9.4,6.42-21.58,9.81-35.22,9.81A96,96,0,0,1,655.56,377c-2.58-.6-4.95-1.2-7.25-1.83L642,373.4c-13.23-3.67-24.66-6.85-32.82-6.85a18.42,18.42,0,0,0-6.37.94,20.87,20.87,0,0,0-8.19,5.41c-1.27,1.63-4.49,6.5-2.92,12.58,1.46,5.67,8.37,17,38.09,28.87,8,2.93,17,6.29,26.1,10.4h0l.26.12c3.14,1.43,6.29,2.94,9.42,4.56l.65.31c41.85,20.24,75,65.78,57.43,113.64l-.12.32-.14.31c-14.81,33.92-44.88,52-87.1,52.31-18.69-.1-41.53-4.38-67.9-12.71l-.1,0-.65-.21c-7.57-2.41-15.69-5.25-24.24-8.48-27.24-10.6-57.24-25.19-77.68-35.61l-2.3-1.2h0l-9.67-5-5.67-3q-6.9-3.6-13.32-6.92c-28.78-14.82-47.52-23-64.06-23.82-.61,0-1.21,0-1.8,0-6.9,0-12.43,2-16,5.79a12.71,12.71,0,0,0-3.61,9.38l0,.68a23.61,23.61,0,0,0,3.46,10.48c3.53,6,10.3,12.74,20.12,20.05,7.45,5.34,15.13,10.86,22.1,16v-.32l7.37,5.83c3.94,3,7.49,5.81,10.83,8.57l.33.26c15,11.89,23.3,21.67,26.8,31.72a37.55,37.55,0,0,1,1.65,6.71c1.75,11.39-.22,31.81-33.06,40.63,0,0-1.12.32-1.52.42l-.21.08-.6.14-2.12.51-.1,0-1.21.26c-1.41.31-2.81.66-4.21,1l-.22,0a82.84,82.84,0,0,0-9.48,2.82l-.51.23-.32.09-.15.06c-3.69,1.4-6.36,3.86-7.14,6.56-.69,2.39.13,5.15,2.42,8.21,6.9,9.16,24.8,20.92,44.05,33.14,34.9,21.91,56.71,43.5,66.66,66,11.16,25.26,9,52.84-5.84,75.67a90.82,90.82,0,0,1-24.89,25.09A101.33,101.33,0,0,1,443.07,887h-66.5c96.59,0,127.8-61,107.23-107.57-11.1-25.13-38.72-46.17-62.27-60.95h0c-22.49-14.27-39.29-25.55-47.11-36-10.38-13.81-3.19-27.38,9.78-32.33l.54-.21.19-.08h0a93.17,93.17,0,0,1,11-3.32c1.58-.43,3.18-.82,4.76-1.17l.45-.09a.13.13,0,0,1,.08,0c.8-.19,1.69-.39,2.69-.64l.07,0c.56-.14,1.2-.33,1.82-.5,10.57-2.84,27.73-9.27,24.86-27.89a26.15,26.15,0,0,0-1.15-4.7c-3-8.63-11.39-17.25-23.09-26.51v0c-3.26-2.7-6.89-5.58-11-8.75-7.9-6-17.54-13-29.24-21.34-9.86-7.34-18.39-15.28-23.23-23.5a34.6,34.6,0,0,1-5-15.66h0v-.19C337.88,515.47,337.88,515.34,337.88,515.21Z"/><path class="cls-10" d="M805.19,865c27.9,15.87,60,22,60,22H847.88c-59.81,0-102.66-50.06-88.66-94.2,8.64-27.24,40.28-47.4,80.16-33.27,24.18,8.57,41.8,17.67,60.23,19.88,44.8,5.41,69.46-32.17,49-67.53l17.87,30.95a48.63,48.63,0,0,1-3.79,16.29q-1.05,2.32-2.34,4.56c-10,17.34-29.55,27.69-52.28,27.69a82.83,82.83,0,0,1-9.86-.61c-14.32-1.72-27.49-6.9-42.75-12.9-6.3-2.47-12.82-5-19.93-7.56a65.54,65.54,0,0,0-21.83-4c-23.57,0-38.89,15-43.61,29.94s-1.34,32,9.37,46.59a75.55,75.55,0,0,0,18.1,17.48h0l1,.61Q801.74,863.09,805.19,865Z"/><path class="cls-11" d="M601.32,713.31c-33.16-32.62-18.69-67.32,18.12-68.25,16.7-.43,37.86,4.38,61.09,16.59,14,7.37,24.59,12.21,32.61,13.32,35.44,4.91,23.33-41.74,57.65-37.28,6,.78,13.1,4,22.5,8.39,16.2,7.59,30.27,12.37,42.4,12.89,44.14,1.89,60.39-38.13,40.42-72.74l19.78,34.26a60.69,60.69,0,0,1-3.72,16.43l-3.63,7.44c-9.73,16.59-27.88,26.11-49.87,26.11-1.14,0-2.3,0-3.48-.08-12.74-.55-27.6-5-46.76-14-8.2-3.84-14.82-6.83-19.11-7.39a22.47,22.47,0,0,0-3-.21c-6,0-8.21,2.58-13.78,12.84-5.42,10-13.61,25.1-34.46,25.1a48.2,48.2,0,0,1-6.55-.47c-9.86-1.36-21.67-6.79-36.37-14.52-24.08-12.65-42.51-15.31-53.73-15.31l-1.75,0c-12.08.31-21.17,5.23-24.3,13.16-3.89,9.85,1.31,23.13,13.9,35.53,7,6.91,17.06,14.65,29.82,23C654.62,738.26,667,750,674.94,762c17.72,26.82,19.56,59.11,4.91,86.35A86.15,86.15,0,0,1,637.17,887H584.65c79.8,0,114.42-67.74,80.75-118.69-7.29-11-18.65-21.5-32.5-30.54C620,729.28,609.24,721.11,601.32,713.31Z"/></g><text class="cls-12" transform="translate(365.64 1054.41)"> </text><text class="cls-13" transform="translate(317.05 1007.09)"><tspan class="cls-14" x="221.87" y="0"></tspan></text></svg>